<!--<svg xmlns:xlink="http://www.w3.org/1999/xlink" xmlns="http://www.w3.org/2000/svg" version="1.1" viewBox="0 0 70 70" style="width:100%; height:auto;"><g fill-rule="evenodd" fill="none" stroke-width="1" stroke="none"><path fill="#292F36" d="M35,9.9475983e-13 C54.3299662,9.9475983e-13 70,15.6498664 70,34.954955 C70,54.2600435 54.3299662,69.9099099 35,69.9099099 C15.6700338,69.9099099 0,54.2600435 0,34.954955 C0,15.6498664 15.6700338,9.9475983e-13 35,9.9475983e-13 Z M35,1 C16.2220304,1 1,16.2024396 1,34.954955 C1,53.7074703 16.2220304,68.9099099 35,68.9099099 C53.7779696,68.9099099 69,53.7074703 69,34.954955 C69,16.2024396 53.7779696,1 35,1 Z M49.8784352,25 L50.2325097,32.9309946 L56.6053759,32.9309946 L56.6053759,37.3018174 L57.7605024,37.3018174 L57.7605024,37.3024044 L59,37.3024044 L59,45.4124348 C59,46.5418282 58.2605674,47.4581395 57.3481265,47.4581395 L57.3481265,47.4581395 L19.2327457,47.4581395 L11.6,35.116993 L22.7758602,35.116993 L24.4727633,37.3024044 L43.8596434,37.3024044 L43.8596434,35.116993 L42.1290867,35.116993 L42.1290867,32.9315816 L48.501953,32.9315816 L48.8560274,25 L49.8784352,25 Z"></path></g></svg> -->
<svg xmlns="http://www.w3.org/2000/svg" viewBox="0 0 70 70" xmlns:v="https://vecta.io/nano"><path fill="#292f36" d="M35 0c19.33 0 35 15.65 35 34.955S54.33 69.91 35 69.91 0 54.26 0 34.955 15.67 0 35 0zm0 1C16.222 1 1 16.202 1 34.955S16.222 68.91 35 68.91s34-15.202 34-33.955S53.778 1 35 1zm14.878 24l.354 7.931h6.373v4.371h1.155 0H59v8.11c0 1.129-.739 2.046-1.652 2.046h0-38.115L11.6 35.117h11.176l1.697 2.185H43.86v-2.185h-1.731v-2.185h6.373L48.856 25h1.022z" fill-rule="evenodd"/></svg>