<svg xmlns="http://www.w3.org/2000/svg" viewBox="0 0 70 70" xmlns:v="https://vecta.io/nano"><path fill="#292f36" d="M35 0c19.33 0 35 15.65 35 34.955S54.33 69.91 35 69.91 0 54.26 0 34.955 15.67 0 35 0zm0 1C16.222 1 1 16.202 1 34.955S16.222 68.91 35 68.91s34-15.202 34-33.955S53.778 1 35 1zm8.506 40.228c1.857 0 3.342 1.406 3.342 3.163s-1.485 3.163-3.342 3.163-3.342-1.406-3.342-3.163 1.485-3.163 3.342-3.163zm7.291 0c1.688 0 3.129 1.167 3.325 2.736l.017.176v.251c0 1.757-1.485 3.163-3.342 3.163s-3.342-1.406-3.342-3.163 1.485-3.163 3.342-3.163zm-32.203 0c1.857 0 3.342 1.406 3.342 3.163s-1.485 3.163-3.342 3.163-3.342-1.406-3.342-3.163 1.485-3.163 3.342-3.163zm0 1.607c-.902 0-1.591.653-1.591 1.506s.69 1.506 1.591 1.506 1.591-.653 1.591-1.506-.743-1.506-1.591-1.506zm24.911.201c-.796 0-1.432.602-1.432 1.356s.637 1.356 1.432 1.356 1.485-.602 1.432-1.356c0-.753-.637-1.356-1.432-1.356zm7.291 0c-.796 0-1.432.602-1.432 1.356s.637 1.356 1.432 1.356 1.432-.602 1.432-1.356-.637-1.356-1.432-1.356zm-35.544-.657c-.439.578-.759 1.278-.813 2.063l-.008.238H11.87c-.502-.139-.746-.758-.852-2.063L11 42.378h4.253zm6.851-12.652c.283 0 .608.197.665.484l.009.089v6.64l-1.348 2.579h35.14v3.63c0 .488-.402.852-.875.902l-.11.006h-.726c-.05-1.99-1.803-3.621-3.938-3.721l-.208-.005h-7.049c-2.209 0-3.981 1.614-4.136 3.582l-.01.192H22.777a3.37 3.37 0 0 0-.881-2.293c-.777-.908-1.969-1.433-3.265-1.433-.726 0-1.451.191-2.073.525-.144.044-.289.006-.973.001h-.168-4.25s-.466-4.681.155-5.732l.513-.899.006-.01h0l2.176-3.581.012-.02c.082-.132.598-.861 1.955-.93l.21-.005h5.908zm16.846 6.901v1.725h-3.038v-1.725h3.038zM34.242 28v1.318h1.061v9.034h-9.923c-.796 0-2.229-1.367-2.229-4.492 0-3.027 1.245-4.451 2.143-4.537l.086-.004h3.502V28h5.36zm16.678 0v1.318h5.63c1.095 0 2.45 1.953 2.45 4.444 0 2.41-1.123 4.454-2.14 4.584l-.101.006H39.557v-9.034h6.099V28h5.265zm-11.971 6.901v1.15h-3.038v-1.15h3.038zm-20.214-4.077h-3.11c-.327 0-.527.116-.791.488l-.09.133-1.399 2.436c-.292.537-.128.823.407.856l.112.003h4.924c.33 0 .617-.237.666-.531l.008-.09h-.052v-2.675c0-.334-.311-.621-.674-.621zm20.214 2.352v1.15h-3.038v-1.15h3.038zm0-1.725v1.15h-3.038v-1.15h3.038zm0-1.725v1.15h-3.038v-1.15h3.038z" fill-rule="evenodd"/></svg>