<svg xmlns="http://www.w3.org/2000/svg" viewBox="0 0 70 70" xmlns:v="https://vecta.io/nano"><path d="M35 0c19.33 0 35 15.67 35 35S54.33 70 35 70 0 54.33 0 35 15.67 0 35 0zm0 1.067C16.254 1.067 1.061 16.261 1.061 35S16.254 68.933 35 68.933 68.939 53.739 68.939 35 53.746 1.067 35 1.067zM34.875 24c.364 0 .659.187.659.417h0v.637h9.771c.921 0 1.667.472 1.667 1.054s-.746 1.054-1.667 1.054h0-4.641l-5.131 1.942v.901h1.163v1.912h3.567c.921 0 1.667.472 1.667 1.054s-.746 1.054-1.667 1.054h0-.543v3.775h9.694v-1.961c0-.582.746-1.054 1.667-1.054s1.667.472 1.667 1.054h0v9.363c0 .582-.747 1.054-1.668 1.054s-1.667-.472-1.667-1.054h0v-1.177H20.334v1.177c0 .582-.746 1.054-1.667 1.054S17 45.784 17 45.202h0v-9.363c0-.582.746-1.054 1.668-1.054s1.667.472 1.667 1.054h0V37.8h9.538v-3.775h-.155c-.921 0-1.667-.472-1.667-1.054s.746-1.054 1.667-1.054h0 3.335v-1.912h1.163v-.916l-5.092-1.928h-4.136c-.921 0-1.667-.472-1.667-1.054s.746-1.054 1.667-1.054h0 9.228v-.637c0-.23.295-.417.659-.417zm3.231 3.161h-2.572v.974l2.572-.974zm-3.891 0h-2.534l2.534.959v-.959z"/></svg>