<svg xmlns="http://www.w3.org/2000/svg" width="70" height="70" xmlns:v="https://vecta.io/nano"><defs><clipPath id="A"><path d="M70 0v70H0V0h70z"/></clipPath><clipPath id="B"><path d="M35 0c19.33 0 35 15.67 35 35S54.33 70 35 70 0 54.33 0 35 15.67 0 35 0zm0 1.067C16.254 1.067 1.061 16.261 1.061 35S16.254 68.933 35 68.933 68.939 53.739 68.939 35 53.746 1.067 35 1.067zm13.203 26.663v.938h3.617v4.979h4.948v10.631H59V46H12v-1.721h2.232v-7.77h23.048v7.77h1.049v-15.61h3.617v-.938h6.258zm5.895 7.638H51.82v8.91h2.278v-8.91zm-31.899 3.94H18.92v1.776h3.279v-1.776zm5.196 0h-3.279v1.776h3.279v-1.776zm5.195 0h-3.279v1.776h3.279v-1.776zM34.196 23l.21 12.697h-8.144L26.471 23h7.725zm-9.188 3.382l.204 9.315h-8.085l.204-9.315h7.677z"/></clipPath></defs><g clip-path="url(#A)"><g clip-path="url(#B)"><path fill="#292f35" d="M0 0h70v70H0V0z"/></g></g></svg>