<svg xmlns="http://www.w3.org/2000/svg" viewBox="0 0 70 70" xmlns:v="https://vecta.io/nano"><path fill="#292f36" d="M35 0c19.33 0 35 15.65 35 34.955S54.33 69.91 35 69.91 0 54.26 0 34.955 15.67 0 35 0zm0 1C16.222 1 1 16.202 1 34.955S16.222 68.91 35 68.91s34-15.202 34-33.955S53.778 1 35 1zM23.6 44.358c.994 0 1.8.787 1.8 1.759s-.806 1.759-1.8 1.759-1.8-.787-1.8-1.759.806-1.759 1.8-1.759zm-4.2 0c.994 0 1.8.787 1.8 1.759s-.806 1.759-1.8 1.759-1.8-.787-1.8-1.759.806-1.759 1.8-1.759zm33 0c.994 0 1.8.787 1.8 1.759s-.806 1.759-1.8 1.759-1.8-.787-1.8-1.759.806-1.759 1.8-1.759zm-4.2 0c.994 0 1.8.787 1.8 1.759s-.806 1.759-1.8 1.759-1.8-.787-1.8-1.759.806-1.759 1.8-1.759zm-4.38-1.757H44v4.689h-5.4v-4.689h.494v2.14h4.412v-2.14c.097-.003.2-.001.314 0zm-.314 2.577h-4.412v1.675h4.412v-1.675zM38.715 27v1.152h10.954c.969 0 1.874.431 2.46 1.164l.12.161.27.39c2.228 3.207 2.288 7.325.181 10.581l-.181.269-.27.39a3.05 3.05 0 0 1-1.186 1.004l-.206.09h3.831v-.68H56.6v2.215h-1.911v-.381h-1.44c1.016.416 1.746 1.353 1.824 2.459l.007.197h-.48c0-1.284-1.045-2.338-2.362-2.42l-.166-.005h-3.875c-1.338 0-2.436 1.003-2.522 2.266l-.005.159h-.48c0-1.125.674-2.101 1.655-2.577l.176-.079H47v-.924h-3.2V28.483h-5.245v13.949H37.46v.924h-4.8v-.924H23v.694h.272c1.599 0 2.911 1.204 3.002 2.717l.005.169h-.48c0-1.284-1.045-2.338-2.362-2.42l-.166-.005h-3.875c-1.338 0-2.436 1.003-2.522 2.266l-.005.159h-.48c0-1.125.674-2.101 1.655-2.577l.176-.079h-2.85v.458H13.46v-.458h-.06v-1.154h.06v-.68h1.911v.68h3.771a3.07 3.07 0 0 1-1.391-1.095c-2.453-3.533-2.453-8.098 0-11.63.538-.774 1.414-1.258 2.373-1.319l.207-.007h10.916V27h7.468zm4.605 13.307v2.125h-4.285v-2.125h4.285zm0-2.337v1.876h-4.285V37.97h4.285zm0-2.286v1.826h-4.285v-1.826h4.285zm0-2.287v1.826h-4.285v-1.826h4.285zm0-2.15v1.689h-4.285v-1.689h4.285zm0-2.303v1.843h-4.285v-1.843h4.285z" fill-rule="evenodd"/></svg>