<?xml version="1.0" encoding="UTF-8"?>
<svg width="476px" height="119px" viewBox="0 0 476 119" version="1.1" xmlns="http://www.w3.org/2000/svg" xmlns:xlink="http://www.w3.org/1999/xlink">
    <title>jeff-armstrong-signature</title>
    <g id="jeff-armstrong-signature" stroke="none" stroke-width="1" fill="none" fill-rule="evenodd">
        <g id="Group-3" transform="translate(2.000000, 2.000000)" fill="#000000" fill-rule="nonzero">
            <g id="Group">
                <g id="e" transform="translate(39.871094, 18.681641)">
                    <path d="M0.390625,21.171875 C0.494791667,20.859375 0.6640625,20.2994792 0.8984375,19.4921875 C1.1328125,18.6848958 1.3671875,17.8125 1.6015625,16.875 C1.8359375,15.9375 2.04427083,15.0390625 2.2265625,14.1796875 C2.40885417,13.3203125 2.55208333,12.734375 2.65625,12.421875 C2.96875,11.171875 3.34635417,9.81770833 3.7890625,8.359375 C4.23177083,6.90104167 4.84375,5.546875 5.625,4.296875 C6.40625,3.046875 7.40885417,2.01822917 8.6328125,1.2109375 C9.85677083,0.403645833 11.3802083,0 13.203125,0 C13.8802083,0 14.3619792,0.247395833 14.6484375,0.7421875 C14.9348958,1.23697917 15.1822917,1.77083333 15.390625,2.34375 C15.390625,2.55208333 15.4036458,2.9296875 15.4296875,3.4765625 C15.4557292,4.0234375 15.46875,4.40104167 15.46875,4.609375 C15.46875,6.84895833 15.2473958,8.828125 14.8046875,10.546875 C14.3619792,12.265625 13.6848958,13.8541667 12.7734375,15.3125 C11.8619792,16.7708333 10.7552083,18.1380208 9.453125,19.4140625 C8.15104167,20.6901042 6.66666667,22.03125 5,23.4375 C4.94791667,23.59375 4.86979167,23.8541667 4.765625,24.21875 C4.66145833,24.5833333 4.609375,24.84375 4.609375,25 L4.609375,25.15625 C4.609375,26.09375 4.765625,26.8489583 5.078125,27.421875 C5.390625,27.9947917 5.8203125,28.4505208 6.3671875,28.7890625 C6.9140625,29.1276042 7.5390625,29.3359375 8.2421875,29.4140625 C8.9453125,29.4921875 9.71354167,29.53125 10.546875,29.53125 C12.9947917,29.53125 15.3385417,29.1927083 17.578125,28.515625 C19.8177083,27.8385417 21.875,26.7447917 23.75,25.234375 C24.0104167,24.9739583 24.3359375,24.5963542 24.7265625,24.1015625 C25.1171875,23.6067708 25.5208333,23.0989583 25.9375,22.578125 C26.3541667,22.0572917 26.796875,21.6015625 27.265625,21.2109375 C27.734375,20.8203125 28.2291667,20.625 28.75,20.625 C29.2708333,20.625 29.5833333,20.8333333 29.6875,21.25 C29.7916667,21.6666667 29.84375,22.0833333 29.84375,22.5 C29.84375,23.6458333 29.4921875,24.7265625 28.7890625,25.7421875 C28.0859375,26.7578125 27.1744792,27.6692708 26.0546875,28.4765625 C24.9348958,29.2838542 23.6588542,30 22.2265625,30.625 C20.7942708,31.25 19.375,31.7708333 17.96875,32.1875 C16.5625,32.6041667 15.2213542,32.9166667 13.9453125,33.125 C12.6692708,33.3333333 11.5885417,33.4375 10.703125,33.4375 C7.94270833,33.4375 5.63802083,32.9817708 3.7890625,32.0703125 C1.94010417,31.1588542 0.677083333,29.3229167 0,26.5625 L0.390625,21.171875 Z M11.5625,5.78125 C10.5208333,6.71875 9.70052083,7.56510417 9.1015625,8.3203125 C8.50260417,9.07552083 8.03385417,9.85677083 7.6953125,10.6640625 C7.35677083,11.4713542 7.0703125,12.34375 6.8359375,13.28125 C6.6015625,14.21875 6.35416667,15.3125 6.09375,16.5625 C7.08333333,15.78125 7.90364583,15 8.5546875,14.21875 C9.20572917,13.4375 9.73958333,12.6302083 10.15625,11.796875 C10.5729167,10.9635417 10.8854167,10.0651042 11.09375,9.1015625 C11.3020833,8.13802083 11.4583333,7.03125 11.5625,5.78125 Z" id="Shape"></path>
                </g>
                <g id="J">
                    <path d="M8.96484375,88.9453125 C8.96484375,85.546875 9.53613281,82.3828125 10.6787109,79.453125 C11.8212891,76.5234375 13.2568359,73.7109375 14.9853516,71.015625 C16.7138672,68.3203125 18.5595703,65.6542969 20.5224609,63.0175781 C22.4853516,60.3808594 24.2578125,57.7148438 25.8398438,55.0195312 L25.4882813,55.0195312 C24.140625,55.0195312 22.8222656,55.1074219 21.5332031,55.2832031 C20.2441406,55.4589844 18.9257812,55.546875 17.578125,55.546875 C14.8242188,55.546875 12.3632812,54.5507813 10.1953125,52.5585938 C8.02734375,50.5664062 6.19628906,48.0615234 4.70214844,45.0439453 C3.20800781,42.0263672 2.05078125,38.7890625 1.23046875,35.3320312 C0.41015625,31.875 0,28.7109375 0,25.8398438 C0.234375,24.0820312 0.512695312,22.2216797 0.834960938,20.2587891 C1.15722656,18.2958984 1.58203125,16.3769531 2.109375,14.5019531 C2.63671875,12.6269531 3.29589844,10.8251953 4.08691406,9.09667969 C4.87792969,7.36816406 5.859375,5.83007812 7.03125,4.48242188 C8.203125,3.13476562 9.609375,2.06542969 11.25,1.27441406 C12.890625,0.483398438 14.8535156,0.05859375 17.1386719,0 C18.2519531,0 19.2773438,0.29296875 20.2148438,0.87890625 C21.1523438,1.46484375 21.9580078,2.21191406 22.6318359,3.12011719 C23.3056641,4.02832031 23.8623047,5.0390625 24.3017578,6.15234375 C24.7412109,7.265625 25.0488281,8.37890625 25.2246094,9.4921875 L28.2128906,41.3085938 C28.7988281,40.9570312 29.5166016,40.7958984 30.3662109,40.8251953 C31.2158203,40.8544922 31.875,40.8691406 32.34375,40.8691406 L35.15625,40.8691406 C35.5664062,41.2792969 35.8886719,41.5136719 36.1230469,41.5722656 C36.3574219,41.6308594 36.6796875,41.6601562 37.0898438,41.6601562 L37.7050781,41.6601562 C38.1738281,41.3671875 38.7158203,41.015625 39.3310547,40.6054688 C39.9462891,40.1953125 40.5322266,39.8583984 41.0888672,39.5947266 C41.6455078,39.3310547 42.0996094,39.2138672 42.4511719,39.2431641 C42.8027344,39.2724609 42.9345703,39.5507812 42.8466797,40.078125 C42.7587891,40.6054688 42.3925781,41.4404297 41.7480469,42.5830078 C41.1035156,43.7255859 40.0195312,45.2929688 38.4960938,47.2851562 C38.1445312,48.1054688 37.5878906,48.8378906 36.8261719,49.4824219 C36.0644531,50.1269531 35.3027344,50.8007812 34.5410156,51.5039062 C33.7792969,52.2070312 33.1054688,52.9248047 32.5195312,53.6572266 C31.9335938,54.3896484 31.640625,55.1953125 31.640625,56.0742188 C31.640625,56.1914063 31.6552734,56.3818359 31.6845703,56.6455078 C31.7138672,56.9091797 31.7285156,57.0703125 31.7285156,57.1289062 L35.15625,74.2675781 C35.15625,74.2675781 35.1708984,74.5898438 35.2001953,75.234375 C35.2294922,75.8789062 35.2587891,76.640625 35.2880859,77.5195312 C35.3173828,78.3984375 35.3613281,79.2919922 35.4199219,80.2001953 C35.4785156,81.1083984 35.5078125,81.8554688 35.5078125,82.4414062 L35.5078125,82.8808594 C35.5078125,84.9316406 35.2148438,87.1728516 34.6289062,89.6044922 C34.0429688,92.0361328 33.1640625,94.3066406 31.9921875,96.4160156 C30.8203125,98.5253906 29.3261719,100.297852 27.5097656,101.733398 C25.6933594,103.168945 23.5546875,103.886719 21.09375,103.886719 C19.1015625,103.886719 17.3583984,103.417969 15.8642578,102.480469 C14.3701172,101.542969 13.1103516,100.356445 12.0849609,98.9208984 C11.0595703,97.4853516 10.2832031,95.8886719 9.75585938,94.1308594 C9.22851562,92.3730469 8.96484375,90.6445312 8.96484375,88.9453125 Z M13.2714844,89.4726562 C13.2714844,90.46875 13.4472656,91.5527344 13.7988281,92.7246094 C14.1503906,93.8964844 14.6630859,94.9951172 15.3369141,96.0205078 C16.0107422,97.0458984 16.8017578,97.8955078 17.7099609,98.5693359 C18.6181641,99.2431641 19.6582031,99.5800781 20.8300781,99.5800781 C22.8808594,99.5800781 24.5214844,98.9208984 25.7519531,97.6025391 C26.9824219,96.2841797 27.9638672,94.7021484 28.6962891,92.8564453 C29.4287109,91.0107422 29.9121094,89.0771484 30.1464844,87.0556641 C30.3808594,85.0341797 30.4980469,83.3496094 30.4980469,82.0019531 C30.4980469,80.0097656 30.4248047,78.1494141 30.2783203,76.4208984 C30.1318359,74.6923828 29.9414062,72.9785156 29.7070312,71.2792969 C29.4726562,69.5800781 29.1650391,67.8808594 28.7841797,66.1816406 C28.4033203,64.4824219 27.9492188,62.6367188 27.421875,60.6445312 L27.0703125,60.9960938 C26.8945312,61.171875 26.5136719,61.6699219 25.9277344,62.4902344 C25.3417969,63.3105469 24.6679688,64.2480469 23.90625,65.3027344 C23.1445312,66.3574219 22.4121094,67.4121094 21.7089844,68.4667969 C21.0058594,69.5214844 20.5078125,70.3417969 20.2148438,70.9277344 C19.3359375,72.3339844 18.4863281,73.7695312 17.6660156,75.234375 C16.8457031,76.6992188 16.1132812,78.2080078 15.46875,79.7607422 C14.8242188,81.3134766 14.296875,82.8955078 13.8867188,84.5068359 C13.4765625,86.1181641 13.2714844,87.7734375 13.2714844,89.4726562 Z M4.65820312,24.7851562 C4.65820312,27.421875 4.87792969,30.2783203 5.31738281,33.3544922 C5.75683594,36.4306641 6.47460938,39.2871094 7.47070312,41.9238281 C8.46679688,44.5605469 9.81445312,46.7578125 11.5136719,48.515625 C13.2128906,50.2734375 15.3808594,51.1523438 18.0175781,51.1523438 C18.3105469,51.1523438 18.8232422,51.1816406 19.5556641,51.2402344 C20.2880859,51.2988281 21.0498047,51.2988281 21.8408203,51.2402344 C22.6318359,51.1816406 23.3496094,51.0498047 23.9941406,50.8447266 C24.6386719,50.6396484 24.9609375,50.2734375 24.9609375,49.7460938 C24.9609375,49.6875 24.9462891,49.6435547 24.9169922,49.6142578 C24.8876953,49.5849609 24.8730469,49.5117188 24.8730469,49.3945312 L24.8730469,49.0429688 L20.5664062,10.3710938 C20.4492188,9.7265625 20.2441406,9.08203125 19.9511719,8.4375 C19.6582031,7.79296875 19.3066406,7.19238281 18.8964844,6.63574219 C18.4863281,6.07910156 18.0029297,5.61035156 17.4462891,5.22949219 C16.8896484,4.84863281 16.2890625,4.65820312 15.6445312,4.65820312 C13.4765625,4.65820312 11.6894531,5.41992188 10.2832031,6.94335938 C8.87695312,8.46679688 7.74902344,10.2832031 6.89941406,12.3925781 C6.04980469,14.5019531 5.46386719,16.7138672 5.14160156,19.0283203 C4.81933594,21.3427734 4.65820312,23.2617188 4.65820312,24.7851562 Z M28.6523438,43.8574219 C28.6523438,43.9160156 28.6669922,43.9746094 28.6962891,44.0332031 C28.7255859,44.0917969 28.7402344,44.1796875 28.7402344,44.296875 C28.7402344,44.4726562 28.7841797,44.7509766 28.8720703,45.1318359 C28.9599609,45.5126953 29.0478516,45.9375 29.1357422,46.40625 C29.2236328,46.875 29.3261719,47.2998047 29.4433594,47.6806641 C29.5605469,48.0615234 29.6191406,48.3398438 29.6191406,48.515625 C29.6777344,48.515625 29.7509766,48.5449219 29.8388672,48.6035156 C29.9267578,48.6621094 30,48.6914062 30.0585938,48.6914062 C30.2929688,48.6914062 30.6005859,48.5742188 30.9814453,48.3398438 C31.3623047,48.1054688 31.7578125,47.8271484 32.1679688,47.5048828 C32.578125,47.1826172 32.9150391,46.8310547 33.1787109,46.4501953 C33.4423828,46.0693359 33.5742188,45.7324219 33.5742188,45.4394531 C33.5742188,45.2050781 33.5595703,44.9707031 33.5302734,44.7363281 C33.5009766,44.5019531 33.3398438,44.3554688 33.046875,44.296875 C32.9296875,44.2382812 32.6806641,44.1796875 32.2998047,44.1210938 C31.9189453,44.0625 31.5380859,44.0332031 31.1572266,44.0332031 C30.7763672,44.0332031 30.3955078,44.0039062 30.0146484,43.9453125 C29.6337891,43.8867188 29.3554688,43.8574219 29.1796875,43.8574219 L28.6523438,43.8574219 Z" id="Shape"></path>
                </g>
                <g id="f" transform="translate(64.951451, 3.744141)">
                    <path d="M0.0446428571,64.453125 C0.0446428571,64.296875 0.0446428571,64.0494792 0.0446428571,63.7109375 C0.0446428571,63.3723958 0.0446428571,63.0338542 0.0446428571,62.6953125 C0.0446428571,62.3567708 0.0446428571,62.0703125 0.0446428571,61.8359375 C0.0446428571,61.6015625 0.0446428571,61.4583333 0.0446428571,61.40625 L2.77901786,36.953125 C3.14360119,35.0260417 3.45610119,33.5026042 3.71651786,32.3828125 C3.97693452,31.2630208 4.18526786,30.4166667 4.34151786,29.84375 C4.54985119,29.21875 4.75818452,28.8020833 4.96651786,28.59375 L10.6696429,10.3125 C10.8779762,9.6875 11.2686012,8.7890625 11.8415179,7.6171875 C12.4144345,6.4453125 13.078497,5.28645833 13.8337054,4.140625 C14.5889137,2.99479167 15.4092262,2.01822917 16.2946429,1.2109375 C17.1800595,0.403645833 18.0654762,0 18.9508929,0 C19.3154762,0 19.6279762,0.130208333 19.8883929,0.390625 C20.1488095,0.651041667 20.3701637,0.963541667 20.5524554,1.328125 C20.734747,1.69270833 20.8649554,2.08333333 20.9430804,2.5 C21.0212054,2.91666667 21.0602679,3.25520833 21.0602679,3.515625 C21.0602679,5.91145833 20.734747,8.359375 20.0837054,10.859375 C19.4326637,13.359375 18.5863095,15.8203125 17.5446429,18.2421875 C16.5029762,20.6640625 15.2529762,22.96875 13.7946429,25.15625 C12.3363095,27.34375 10.7998512,29.2708333 9.18526786,30.9375 L8.01339286,35.15625 C13.8988095,35.0520833 19.6149554,34.0885417 25.1618304,32.265625 C27.2110619,31.5921686 34.7185206,27.3219405 35.6936455,27.6958822 C37.3579958,28.3341286 31.2816479,34.2944066 28.3258929,35.3125 C23.6383929,36.9270833 18.8988095,38.1510417 14.1071429,38.984375 C15.0446429,40.0260417 15.8258929,40.8854167 16.4508929,41.5625 C17.0758929,42.2395833 17.5837054,42.9296875 17.9743304,43.6328125 C18.3649554,44.3359375 18.6514137,45.15625 18.8337054,46.09375 C19.015997,47.03125 19.1071429,48.3072917 19.1071429,49.921875 C19.1071429,53.984375 18.156622,57.5390625 16.2555804,60.5859375 C14.3545387,63.6328125 11.8675595,66.4583333 8.79464286,69.0625 C8.06547619,69.6354167 7.16703869,70.234375 6.09933036,70.859375 C5.03162202,71.484375 4.00297619,71.796875 3.01339286,71.796875 C2.12797619,71.796875 1.47693452,71.5104167 1.06026786,70.9375 C0.64360119,70.3645833 0.357142857,69.7005208 0.200892857,68.9453125 C0.0446428571,68.1901042 -0.0204613095,67.3958333 0.00558035714,66.5625 C0.0316220238,65.7291667 0.0446428571,65.0260417 0.0446428571,64.453125 Z M6.45089286,42.34375 C6.24255952,43.9583333 6.00818452,45.78125 5.74776786,47.8125 C5.48735119,49.84375 5.25297619,51.9270833 5.04464286,54.0625 C4.83630952,56.1979167 4.65401786,58.3333333 4.49776786,60.46875 C4.34151786,62.6041667 4.26339286,64.609375 4.26339286,66.484375 C5.66964286,66.484375 7.03683036,65.8723958 8.36495536,64.6484375 C9.69308036,63.4244792 10.8779762,61.9401042 11.9196429,60.1953125 C12.9613095,58.4505208 13.8206845,56.6666667 14.4977679,54.84375 C15.1748512,53.0208333 15.5394345,51.5104167 15.5915179,50.3125 C15.6956845,48.8541667 15.6045387,47.6171875 15.3180804,46.6015625 C15.031622,45.5859375 14.5758929,44.7265625 13.9508929,44.0234375 C13.3258929,43.3203125 12.5186012,42.734375 11.5290179,42.265625 C10.5394345,41.796875 9.36755952,41.328125 8.01339286,40.859375 L7.62276786,40.859375 C7.25818452,40.859375 6.99776786,41.015625 6.84151786,41.328125 C6.68526786,41.640625 6.55505952,41.9791667 6.45089286,42.34375 Z M16.0602679,8.828125 C16.0081845,8.828125 15.9040179,9.0234375 15.7477679,9.4140625 C15.5915179,9.8046875 15.3962054,10.234375 15.1618304,10.703125 C14.9274554,11.171875 14.719122,11.6666667 14.5368304,12.1875 C14.3545387,12.7083333 14.2113095,13.0989583 14.1071429,13.359375 C13.9508929,13.7760417 13.7686012,14.3098958 13.5602679,14.9609375 C13.3519345,15.6119792 13.156622,16.2630208 12.9743304,16.9140625 C12.7920387,17.5651042 12.6227679,18.1380208 12.4665179,18.6328125 C12.3102679,19.1276042 12.2321429,19.4010417 12.2321429,19.453125 L12.2321429,19.921875 C13.2217262,18.1510417 14.1331845,16.2890625 14.9665179,14.3359375 C15.7998512,12.3828125 16.2686012,10.4166667 16.3727679,8.4375 L16.0602679,8.828125 Z" id="Shape"></path>
                </g>
                <g id="f-copy" transform="translate(89.951451, 5.744141)">
                    <path d="M0.0446428571,64.453125 C0.0446428571,64.296875 0.0446428571,64.0494792 0.0446428571,63.7109375 C0.0446428571,63.3723958 0.0446428571,63.0338542 0.0446428571,62.6953125 C0.0446428571,62.3567708 0.0446428571,62.0703125 0.0446428571,61.8359375 C0.0446428571,61.6015625 0.0446428571,61.4583333 0.0446428571,61.40625 L2.77901786,36.953125 C3.14360119,35.0260417 3.45610119,33.5026042 3.71651786,32.3828125 C3.97693452,31.2630208 4.18526786,30.4166667 4.34151786,29.84375 C4.54985119,29.21875 4.75818452,28.8020833 4.96651786,28.59375 L10.6696429,10.3125 C10.8779762,9.6875 11.2686012,8.7890625 11.8415179,7.6171875 C12.4144345,6.4453125 13.078497,5.28645833 13.8337054,4.140625 C14.5889137,2.99479167 15.4092262,2.01822917 16.2946429,1.2109375 C17.1800595,0.403645833 18.0654762,0 18.9508929,0 C19.3154762,0 19.6279762,0.130208333 19.8883929,0.390625 C20.1488095,0.651041667 20.3701637,0.963541667 20.5524554,1.328125 C20.734747,1.69270833 20.8649554,2.08333333 20.9430804,2.5 C21.0212054,2.91666667 21.0602679,3.25520833 21.0602679,3.515625 C21.0602679,5.91145833 20.734747,8.359375 20.0837054,10.859375 C19.4326637,13.359375 18.5863095,15.8203125 17.5446429,18.2421875 C16.5029762,20.6640625 15.2529762,22.96875 13.7946429,25.15625 C12.3363095,27.34375 10.7998512,29.2708333 9.18526786,30.9375 L8.01339286,35.15625 C13.8988095,35.0520833 19.6149554,34.0885417 25.1618304,32.265625 C30.7087054,30.4427083 36.0342262,28.203125 41.1383929,25.546875 L41.5290179,25.546875 C41.9977679,25.546875 42.3232887,25.7161458 42.5055804,26.0546875 C42.687872,26.3932292 42.7790179,26.7447917 42.7790179,27.109375 C42.7790179,27.5260417 42.7008929,27.890625 42.5446429,28.203125 C42.3883929,28.515625 42.0498512,28.8020833 41.5290179,29.0625 C37.4144345,31.6145833 33.0133929,33.6979167 28.3258929,35.3125 C23.6383929,36.9270833 18.8988095,38.1510417 14.1071429,38.984375 C15.0446429,40.0260417 15.8258929,40.8854167 16.4508929,41.5625 C17.0758929,42.2395833 17.5837054,42.9296875 17.9743304,43.6328125 C18.3649554,44.3359375 18.6514137,45.15625 18.8337054,46.09375 C19.015997,47.03125 19.1071429,48.3072917 19.1071429,49.921875 C19.1071429,53.984375 18.156622,57.5390625 16.2555804,60.5859375 C14.3545387,63.6328125 11.8675595,66.4583333 8.79464286,69.0625 C8.06547619,69.6354167 7.16703869,70.234375 6.09933036,70.859375 C5.03162202,71.484375 4.00297619,71.796875 3.01339286,71.796875 C2.12797619,71.796875 1.47693452,71.5104167 1.06026786,70.9375 C0.64360119,70.3645833 0.357142857,69.7005208 0.200892857,68.9453125 C0.0446428571,68.1901042 -0.0204613095,67.3958333 0.00558035714,66.5625 C0.0316220238,65.7291667 0.0446428571,65.0260417 0.0446428571,64.453125 Z M6.45089286,42.34375 C6.24255952,43.9583333 6.00818452,45.78125 5.74776786,47.8125 C5.48735119,49.84375 5.25297619,51.9270833 5.04464286,54.0625 C4.83630952,56.1979167 4.65401786,58.3333333 4.49776786,60.46875 C4.34151786,62.6041667 4.26339286,64.609375 4.26339286,66.484375 C5.66964286,66.484375 7.03683036,65.8723958 8.36495536,64.6484375 C9.69308036,63.4244792 10.8779762,61.9401042 11.9196429,60.1953125 C12.9613095,58.4505208 13.8206845,56.6666667 14.4977679,54.84375 C15.1748512,53.0208333 15.5394345,51.5104167 15.5915179,50.3125 C15.6956845,48.8541667 15.6045387,47.6171875 15.3180804,46.6015625 C15.031622,45.5859375 14.5758929,44.7265625 13.9508929,44.0234375 C13.3258929,43.3203125 12.5186012,42.734375 11.5290179,42.265625 C10.5394345,41.796875 9.36755952,41.328125 8.01339286,40.859375 L7.62276786,40.859375 C7.25818452,40.859375 6.99776786,41.015625 6.84151786,41.328125 C6.68526786,41.640625 6.55505952,41.9791667 6.45089286,42.34375 Z M16.0602679,8.828125 C16.0081845,8.828125 15.9040179,9.0234375 15.7477679,9.4140625 C15.5915179,9.8046875 15.3962054,10.234375 15.1618304,10.703125 C14.9274554,11.171875 14.719122,11.6666667 14.5368304,12.1875 C14.3545387,12.7083333 14.2113095,13.0989583 14.1071429,13.359375 C13.9508929,13.7760417 13.7686012,14.3098958 13.5602679,14.9609375 C13.3519345,15.6119792 13.156622,16.2630208 12.9743304,16.9140625 C12.7920387,17.5651042 12.6227679,18.1380208 12.4665179,18.6328125 C12.3102679,19.1276042 12.2321429,19.4010417 12.2321429,19.453125 L12.2321429,19.921875 C13.2217262,18.1510417 14.1331845,16.2890625 14.9665179,14.3359375 C15.7998512,12.3828125 16.2686012,10.4166667 16.3727679,8.4375 L16.0602679,8.828125 Z" id="Shape"></path>
                </g>
            </g>
            <g id="Group-2" transform="translate(148.011719, 0.041016)">
                <path d="M0,46.1517615 C0,43.6856369 0.0801104972,41.395664 0.240331492,39.2818428 C0.400552486,37.1680217 0.667587477,35.0982385 1.04143646,33.0724932 C1.41528545,31.046748 1.85589319,28.9916441 2.36325967,26.9071816 C2.87062615,24.8227191 3.49815838,22.5767841 4.24585635,20.1693767 C4.72651934,18.5252936 5.48756906,16.528907 6.52900552,14.1802168 C7.57044199,11.8315266 8.82550645,9.61495032 10.2941989,7.5304878 C11.7628913,5.44602529 13.4185083,3.66982836 15.2610497,2.20189702 C17.1035912,0.733965673 19.0395948,0 21.0690608,0 L27.718232,0 C27.771639,0 27.9452118,0.0440379404 28.2389503,0.132113821 C28.5326888,0.220189702 28.7596685,0.293586269 28.9198895,0.352303523 C31.0027624,1.46793135 32.6316759,2.8331075 33.8066298,4.44783198 C34.9815838,6.06255646 35.7826888,8.13233966 36.2099448,10.6571816 C36.6906077,13.064589 37.211326,15.3692412 37.7720994,17.5711382 C38.3328729,19.7730352 38.6132597,22.0776874 38.6132597,24.4850949 C38.6132597,27.3622403 38.5465009,30.2100271 38.4129834,33.0284553 C38.2794659,35.8468835 38.2127072,38.6946703 38.2127072,41.5718157 C38.2127072,41.7479675 38.2127072,42.0562331 38.2127072,42.4966125 C38.2127072,42.9369919 38.2260589,43.4214092 38.2527624,43.9498645 C38.2794659,44.4783198 38.2928177,44.9774164 38.2928177,45.4471545 C38.2928177,45.9168925 38.2928177,46.2104788 38.2928177,46.3279133 C38.3462247,46.7976513 38.3996317,47.4728997 38.4530387,48.3536585 C38.5064457,49.2344173 38.6132597,50.203252 38.7734807,51.2601626 C38.9337017,52.3170732 39.0939227,53.4033424 39.2541436,54.5189702 C39.4143646,55.634598 39.6146409,56.6474706 39.8549724,57.5575881 C40.0953039,58.4677055 40.3756906,59.2163505 40.6961326,59.803523 C41.0165746,60.3906956 41.3904236,60.6842818 41.8176796,60.6842818 C43.2596685,60.6842818 44.7684162,60.4787715 46.3439227,60.0677507 C47.9194291,59.6567299 49.3480663,59.0108401 50.6298343,58.1300813 C50.7366483,58.0126468 50.9903315,57.7924571 51.390884,57.4695122 C51.7914365,57.1465673 52.2186924,56.7942638 52.6726519,56.4126016 C53.1266114,56.0309395 53.5538674,55.678636 53.9544199,55.3556911 C54.3549724,55.0327462 54.6620626,54.7831978 54.8756906,54.6070461 C55.2495396,54.3134598 55.5566298,54.0932701 55.7969613,53.946477 C56.0372928,53.7996838 56.3443831,53.7262873 56.718232,53.7262873 C57.038674,53.7262873 57.3324125,53.8290425 57.5994475,54.0345528 C57.8664825,54.2400632 58,54.5483288 58,54.9593496 C58,56.3098464 57.3190608,57.5722674 55.9571823,58.7466125 C54.5953039,59.9209575 53.0064457,60.9778681 51.1906077,61.9173442 C49.3747698,62.8568202 47.5455801,63.6054652 45.7030387,64.1632791 C43.8604972,64.721093 42.485267,65 41.5773481,65 C40.4023941,65 39.4010129,64.3394309 38.5732044,63.0182927 C37.7453959,61.6971545 37.0244015,60.1411472 36.410221,58.350271 C35.7960405,56.5593948 35.2619705,54.7098013 34.808011,52.8014905 C34.3540516,50.8931798 33.9134438,49.3224932 33.4861878,48.0894309 C32.7384899,50.438121 31.6302947,52.6253388 30.1616022,54.651084 C28.6929098,56.6768293 27.0239411,58.4530262 25.1546961,59.9796748 C23.2854512,61.5063234 21.2559853,62.7100271 19.0662983,63.5907859 C16.8766114,64.4715447 14.660221,64.9119241 12.4171271,64.9119241 C9.96040516,64.9119241 7.91758748,64.3687895 6.28867403,63.2825203 C4.65976059,62.1962511 3.37799263,60.787037 2.44337017,59.054878 C1.5087477,57.3227191 0.86786372,55.3263324 0.520718232,53.0657182 C0.173572744,50.8051039 0,48.5004517 0,46.1517615 Z M4.96685083,45.4471545 C4.96685083,47.2086721 5.00690608,48.984869 5.08701657,50.7757453 C5.16712707,52.5666215 5.46086556,54.1960253 5.96823204,55.6639566 C6.47559853,57.131888 7.2767035,58.3209124 8.37154696,59.2310298 C9.46639042,60.1411472 11.0285451,60.596206 13.058011,60.596206 C15.728361,60.596206 18.1049724,59.9356369 20.1878453,58.6144986 C22.2707182,57.2933604 24.0865562,55.5612014 25.6353591,53.4180217 C27.1841621,51.2748419 28.4926335,48.8087173 29.5607735,46.0196477 C30.6289134,43.2305781 31.4834254,40.3827913 32.1243094,37.4762873 C32.7651934,34.5697832 33.2325046,31.7366757 33.5262431,28.9769648 C33.8199816,26.2172538 33.9668508,23.7511292 33.9668508,21.5785908 C32.5782689,21.5785908 31.8839779,20.8739837 31.8839779,19.4647696 C31.8839779,18.5840108 32.0441989,17.8060072 32.3646409,17.1307588 C32.6850829,16.4555104 32.8453039,15.5894309 32.8453039,14.5325203 C32.8453039,13.2407407 32.6450276,11.9783198 32.2444751,10.7452575 C31.8439227,9.51219512 31.2564457,8.3965673 30.4820442,7.39837398 C29.7076427,6.40018067 28.7997238,5.62217706 27.7582873,5.06436314 C26.7168508,4.50654923 25.5819521,4.22764228 24.3535912,4.22764228 C21.8434622,4.22764228 19.6404236,4.97628726 17.7444751,6.47357724 C15.8485267,7.97086721 14.179558,9.9232159 12.7375691,12.3306233 C11.2955801,14.7380307 10.0805709,17.4537037 9.09254144,20.4776423 C8.10451197,23.5015808 7.303407,26.554878 6.68922652,29.6375339 C6.07504604,32.7201897 5.63443831,35.6560524 5.36740331,38.445122 C5.10036832,41.2341915 4.96685083,43.5682023 4.96685083,45.4471545 Z" id="Shape"></path>
                <path d="M55.0236613,55.1538462 C56.3486924,54.0769231 57.3306351,53.025641 57.9694894,52 C58.6083437,50.974359 59.117061,49.9487179 59.4956413,48.9230769 C59.8742217,47.8974359 60.1818182,46.8076923 60.4184309,45.6538462 C60.6550436,44.5 61.0336239,43.2307692 61.5541719,41.8461538 C61.3648817,41.4871795 61.258406,41.1666667 61.2347447,40.8846154 C61.2110834,40.6025641 61.1992528,40.2564103 61.1992528,39.8461538 C61.1992528,39.4358974 61.258406,38.9487179 61.3767123,38.3846154 C61.4950187,37.8205128 61.6724782,37.2948718 61.9090909,36.8076923 C62.1457036,36.3205128 62.4296389,35.8974359 62.7608966,35.5384615 C63.0921544,35.1794872 63.494396,35 63.9676214,35 C63.9202989,35.2051282 64.1924035,35.4358974 64.7839352,35.6923077 C65.375467,35.9487179 66.1089664,36.2307692 66.9844334,36.5384615 C67.8599004,36.8461538 68.7945205,37.1794872 69.7882939,37.5384615 C70.7820672,37.8974359 71.6575342,38.2820513 72.4146949,38.6923077 C73.2665006,39.2051282 73.869863,39.7564103 74.2247821,40.3461538 C74.5797011,40.9358974 74.7571606,41.7692308 74.7571606,42.8461538 C74.7571606,43.8205128 74.6506849,44.9230769 74.4377335,46.1538462 C74.2247821,47.3846154 74.0118306,48.6282051 73.7988792,49.8846154 C73.5859278,51.1410256 73.3729763,52.3974359 73.1600249,53.6538462 C72.9470735,54.9102564 72.8405978,56.0512821 72.8405978,57.0769231 L72.8405978,59.0769231 C72.7932752,59.5384615 72.8997509,59.7820513 73.1600249,59.8076923 C73.4202989,59.8333333 73.6687422,59.8461538 73.9053549,59.8461538 C74.4732254,59.8461538 74.9937733,59.7435897 75.4669988,59.5384615 C75.9402242,59.3333333 76.4252802,59.1025641 76.9221669,58.8461538 C77.4190535,58.5897436 77.9041096,58.3461538 78.377335,58.1153846 C78.8505604,57.8846154 79.3474471,57.7179487 79.867995,57.6153846 L86.1145704,53.4615385 C86.3038605,53.1025641 86.5523039,52.8076923 86.8599004,52.5769231 C87.1674969,52.3461538 87.4632628,52.1282051 87.747198,51.9230769 C88.2204234,51.6153846 88.7882939,51.1794872 89.4508095,50.6153846 C89.7820672,50.3076923 90.1369863,50 90.5155666,49.6923077 L92.6450809,49.6923077 C92.7870486,49.6923077 92.8816936,49.8461538 92.9290162,50.1538462 C92.9763387,50.4615385 93,50.6923077 93,50.8461538 C93,51.4615385 92.5977584,52.2307692 91.7932752,53.1538462 C90.988792,54.0769231 89.9476961,55.025641 88.6699875,56 C87.392279,56.974359 85.9726027,57.9358974 84.4109589,58.8846154 C82.8493151,59.8333333 81.3231631,60.6923077 79.8325031,61.4615385 C78.3418431,62.2307692 76.9694894,62.8461538 75.7154421,63.3076923 C74.4613948,63.7692308 73.5031133,64 72.8405978,64 C71.988792,64 71.3026152,63.7692308 70.7820672,63.3076923 C70.2615193,62.8461538 69.8356164,62.2820513 69.5043587,61.6153846 C69.1731009,60.9487179 68.9483188,60.2179487 68.8300125,59.4230769 C68.7117061,58.6282051 68.6525529,57.8461538 68.6525529,57.0769231 C68.6525529,56.5128205 68.8181818,55.7179487 69.1494396,54.6923077 C69.4806974,53.6666667 69.8592777,52.6153846 70.2851806,51.5384615 C70.7110834,50.4615385 71.0896638,49.4102564 71.4209215,48.3846154 C71.7521793,47.3589744 71.9178082,46.5384615 71.9178082,45.9230769 C71.9178082,45.8717949 71.5747198,45.6666667 70.888543,45.3076923 C70.2023661,44.9487179 69.4570361,44.5512821 68.6525529,44.1153846 C67.8480697,43.6794872 67.1027397,43.2948718 66.4165629,42.9615385 C65.7303861,42.6282051 65.3872976,42.4358974 65.3872976,42.3846154 C64.3462017,43.5641026 63.624533,44.8205128 63.2222914,46.1538462 C62.8200498,47.4871795 62.4178082,48.8717949 62.0155666,50.3076923 C61.613325,51.7435897 61.0217933,53.1794872 60.2409714,54.6153846 C59.4601494,56.0512821 58.1469489,57.4615385 56.3013699,58.8461538 C56.2540473,58.8461538 56.1475716,58.8205128 55.9819427,58.7692308 C55.8163138,58.7179487 55.6506849,58.5769231 55.485056,58.3461538 C55.3194271,58.1153846 55.1892902,57.7564103 55.0946451,57.2692308 C55,56.7820513 54.9763387,56.0769231 55.0236613,55.1538462 Z" id="Path"></path>
                <path d="M89.7526199,68.048048 C89.8955694,66.7467467 90.0861686,65.5105105 90.3244177,64.3393393 C90.5626668,63.1681682 90.8247408,62.01001 91.1106397,60.8648649 C91.3965386,59.7197197 91.7181749,58.5355355 92.0755486,57.3123123 C92.4329222,56.0890891 92.8260332,54.6966967 93.2548816,53.1351351 L93.2548816,52.7447447 C91.3488888,53.9419419 90.0027814,54.5405405 89.2165594,54.5405405 C88.4303374,54.5405405 88.025314,54.2282282 88.0014891,53.6036036 C87.9776641,52.978979 88.2397382,52.1461461 88.7877111,51.1051051 C89.335684,50.0640641 90.0027814,49.1011011 90.7890035,48.2162162 C91.5752255,47.3313313 92.3852724,46.6286286 93.2191442,46.1081081 C94.053016,45.5875876 94.7082011,45.5095095 95.1846992,45.8738739 C95.7564971,45.8738739 96.2210828,45.977978 96.5784564,46.1861862 C96.9358301,46.3943944 97.3289411,46.7067067 97.7577895,47.1231231 C98.8537353,46.1861862 99.8782064,45.4314314 100.831203,44.8588589 C101.784199,44.2862863 102.927795,44 104.26199,44 C106.358582,44 107.942938,44.5205205 109.015059,45.5615616 C110.08718,46.6026026 110.86149,48.2682683 111.337988,50.5585586 C112.148035,49.6736737 112.886607,48.8538539 113.553704,48.0990991 C114.220802,47.3443443 114.947462,46.6936937 115.733684,46.1471471 C116.519906,45.6006006 117.36569,45.1841842 118.271036,44.8978979 C119.176383,44.6116116 120.200854,44.4684685 121.34445,44.4684685 C122.297446,44.4684685 123.226618,44.8588589 124.131964,45.6396396 C125.037311,46.4204204 125.680583,47.2792793 126.061782,48.2162162 C126.061782,48.4244244 126.061782,48.8928929 126.061782,49.6216216 C126.061782,50.3503504 126.061782,50.8448448 126.061782,51.1051051 C126.061782,52.8748749 125.871183,54.5795796 125.489984,56.2192192 C125.108785,57.8588589 124.918186,59.5375375 124.918186,61.2552553 C124.918186,61.983984 125.001573,62.7257257 125.168348,63.4804805 C125.335122,64.2352352 125.847358,64.6126126 126.705054,64.6126126 C127.84865,64.6126126 128.885034,64.3523524 129.814205,63.8318318 C130.743377,63.3113113 131.601073,62.6736737 132.387295,61.9189189 C133.173517,61.1641642 133.888265,60.3443443 134.531537,59.4594595 C135.17481,58.5745746 135.770432,57.7547548 136.318405,57 C136.866378,56.2452452 137.378614,55.6076076 137.855112,55.0870871 C138.33161,54.5665666 138.808108,54.3063063 139.284607,54.3063063 C139.618155,54.3063063 139.987441,54.4494494 140.392465,54.7357357 C140.797488,55.022022 141,55.3733734 141,55.7897898 C141,55.8418418 140.988088,55.9199199 140.964263,56.024024 C140.940438,56.1281281 140.928525,56.2062062 140.928525,56.2582583 C140.452027,57.8718719 139.761105,59.4074074 138.855758,60.8648649 C137.950412,62.3223223 136.902116,63.6106106 135.71087,64.7297297 C134.519625,65.8488488 133.197342,66.7337337 131.744023,67.3843844 C130.290703,68.035035 128.753997,68.3603604 127.133903,68.3603604 C125.609109,68.3603604 124.322563,68.1391391 123.274267,67.6966967 C122.225971,67.2542543 121.415924,66.2262262 120.844127,64.6126126 C120.844127,64.4564565 120.832214,64.1051051 120.808389,63.5585586 C120.784564,63.012012 120.772652,62.6866867 120.772652,62.5825826 C120.772652,60.6046046 120.951339,58.7047047 121.308712,56.8828829 C121.666086,55.0610611 121.844773,53.2132132 121.844773,51.3393393 C121.844773,51.1831832 121.83286,50.8448448 121.809035,50.3243243 C121.785211,49.8038038 121.773298,49.4654655 121.773298,49.3093093 C121.582699,49.049049 121.284887,48.9189189 120.879864,48.9189189 C120.474841,48.9189189 120.105554,48.9189189 119.772006,48.9189189 C118.77136,48.9189189 117.818363,49.3093093 116.913017,50.0900901 C116.00767,50.8708709 115.173798,51.8598599 114.411401,53.0570571 C113.649004,54.2542543 112.969994,55.5945946 112.374371,57.0780781 C111.778749,58.5615616 111.266513,60.045045 110.837665,61.5285285 C110.408816,63.012012 110.063355,64.3913914 109.801281,65.6666667 C109.539207,66.9419419 109.384345,67.995996 109.336695,68.8288288 L108.550473,69.6096096 L106.120333,69.6096096 C105.691484,69.6096096 105.465148,69.3623624 105.441323,68.8678679 C105.417498,68.3733734 105.405585,67.995996 105.405585,67.7357357 C105.405585,66.4864865 105.488973,65.2242242 105.655747,63.9489489 C105.822521,62.6736737 106.013121,61.3983984 106.227545,60.1231231 C106.441969,58.8478478 106.644481,57.5595596 106.83508,56.2582583 C107.025679,54.956957 107.144804,53.6816817 107.192454,52.4324324 C107.144804,52.016016 107.097154,51.5605606 107.049504,51.0660661 C107.001854,50.5715716 106.906555,50.1161161 106.763605,49.6996997 C106.620656,49.2832833 106.406232,48.9319319 106.120333,48.6456456 C105.834434,48.3593594 105.42941,48.2162162 104.905262,48.2162162 C104.142865,48.2162162 103.404293,48.3723724 102.689546,48.6846847 C101.974798,48.996997 101.319613,49.4004004 100.723991,49.8948949 C100.128368,50.3893894 99.6042199,50.987988 99.1515467,51.6906907 C98.6988734,52.3933934 98.3772371,53.1611612 98.1866378,53.993994 L93.8981541,69.1411411 L93.2548816,69.9219219 C93.2548816,69.9219219 93.1119321,69.9349349 92.8260332,69.960961 C92.5401343,69.986987 92.3257101,70 92.1827607,70 C91.6586126,70 91.1225522,69.9349349 90.5745793,69.8048048 C90.0266064,69.6746747 89.7526199,69.1931932 89.7526199,68.3603604 L89.7526199,68.048048 Z" id="Path"></path>
                <path d="M138.853132,61.8830128 C138.474656,62.0924145 138.072524,62.210203 137.646738,62.2363782 C137.220951,62.2625534 136.795165,62.275641 136.369379,62.275641 C135.943592,62.275641 135.517806,62.2887286 135.09202,62.3149038 C134.666233,62.3410791 134.240447,62.4588675 133.814661,62.6682692 C133.010398,62.7729701 132.489992,62.7075321 132.253444,62.4719551 C132.016896,62.2363782 131.945932,61.909188 132.040551,61.4903846 C132.13517,61.0715812 132.395373,60.6004274 132.821159,60.0769231 C133.246946,59.5534188 133.731869,59.1084402 134.275929,58.7419872 C134.81999,58.3755342 135.41136,58.1137821 136.050039,57.9567308 C136.688718,57.7996795 137.268261,57.8258547 137.788666,58.0352564 C137.552119,57.0929487 137.575773,56.2815171 137.859631,55.6009615 C138.143488,54.920406 138.711204,54.5801282 139.562776,54.5801282 C139.988563,54.5801282 140.378867,54.619391 140.733689,54.6979167 C141.088511,54.7764423 141.360541,54.9989316 141.549779,55.3653846 C142.259423,54.8942308 143.205615,54.0958868 144.388355,52.9703526 C145.571094,51.8448184 146.789316,50.693109 148.043021,49.5152244 C149.296725,48.3373397 150.443982,47.2903312 151.484793,46.3741987 C152.525604,45.4580662 153.235248,45 153.613725,45 C153.755654,45 153.944892,45.0130876 154.18144,45.0392628 C154.417988,45.065438 154.666363,45.1308761 154.926566,45.2355769 C155.186769,45.3402778 155.399662,45.4580662 155.565246,45.5889423 C155.730829,45.7198184 155.813621,45.9161325 155.813621,46.1778846 L155.813621,49.5544872 C155.482454,51.0202991 155.163114,52.3944979 154.855602,53.6770833 C154.548089,54.9596688 154.287887,56.2160791 154.074994,57.4463141 C153.8621,58.6765491 153.708344,59.9198718 153.613725,61.1762821 C153.519106,62.4326923 153.471796,63.7676282 153.471796,65.1810897 C154.22875,65.1810897 155.139459,64.9978632 156.203925,64.6314103 C157.268391,64.2649573 158.344684,63.8199786 159.432805,63.2964744 C160.520925,62.7729701 161.538082,62.2363782 162.484273,61.6866987 C163.430465,61.1370192 164.187419,60.678953 164.755134,60.3125 C164.849753,60.2601496 165.062646,60.0769231 165.393813,59.7628205 C165.724981,59.4487179 166.079802,59.1215278 166.458279,58.78125 C166.836756,58.4409722 167.203405,58.1268697 167.558227,57.8389423 C167.913049,57.551015 168.13777,57.3547009 168.232389,57.25 C168.327008,57.1452991 168.563556,57.0013355 168.942033,56.818109 C169.320509,56.6348825 169.533403,56.517094 169.580712,56.4647436 C169.769951,56.4123932 169.947362,56.4778312 170.112945,56.6610577 C170.278529,56.8442842 170.432285,57.0536859 170.574214,57.2892628 C170.716142,57.5248397 170.822589,57.7604167 170.893553,57.9959936 C170.964518,58.2315705 171,58.3755342 171,58.4278846 C171,58.9513889 170.810762,59.4748932 170.432285,59.9983974 C170.053808,60.5219017 169.604367,61.0061432 169.083962,61.4511218 C168.563556,61.8961004 168.031323,62.3149038 167.487263,62.7075321 C166.943202,63.1001603 166.529244,63.4535256 166.245386,63.7676282 C165.866909,63.9770299 165.216402,64.3173077 164.293865,64.7884615 C163.371328,65.2596154 162.389654,65.7569444 161.348843,66.2804487 C160.308032,66.803953 159.326358,67.3012821 158.403821,67.7724359 C157.481284,68.2435897 156.830777,68.5838675 156.4523,68.7932692 C156.357681,68.8456197 156.144788,68.9110577 155.813621,68.9895833 C155.482454,69.068109 155.127632,69.1858974 154.749155,69.3429487 C154.370678,69.5 154.004029,69.6177885 153.649207,69.6963141 C153.294385,69.7748397 153.069665,69.8402778 152.975045,69.8926282 C152.549259,70.0496795 152.229919,70.3114316 152.017026,70.6778846 C151.804133,71.0443376 151.59124,71.4107906 151.378347,71.7772436 C151.165454,72.1436966 150.905251,72.4577991 150.597738,72.7195513 C150.290226,72.9813034 149.805303,73.0598291 149.142969,72.9551282 C149.095659,72.9027778 148.894593,72.7849893 148.539771,72.6017628 C148.184949,72.4185363 147.960229,72.2745726 147.86561,72.1698718 C146.730179,71.2799145 145.760333,70.4423077 144.95607,69.6570513 C144.151807,68.8717949 143.418508,68.0996261 142.756174,67.3405449 C142.093839,66.5814637 141.466987,65.7569444 140.875617,64.8669872 C140.284247,63.9770299 139.610086,62.9823718 138.853132,61.8830128 Z M143.323889,58.7419872 C143.655056,59.5272436 143.974396,60.2863248 144.281908,61.0192308 C144.58942,61.7521368 144.95607,62.4457799 145.381856,63.1001603 C145.807642,63.7545406 146.292566,64.3173077 146.836626,64.7884615 C147.380686,65.2596154 148.054848,65.5475427 148.859111,65.6522436 C148.95373,64.8669872 149.072004,63.9246795 149.213933,62.8253205 C149.355862,61.7259615 149.521445,60.5742521 149.710684,59.3701923 C149.899922,58.1661325 150.124643,56.9751603 150.384845,55.7972756 C150.645048,54.619391 150.940733,53.5854701 151.2719,52.6955128 L150.562256,52.6955128 C149.805303,53.2713675 149.095659,53.8472222 148.433325,54.4230769 C147.8183,54.9465812 147.203275,55.4569979 146.588251,55.9543269 C145.973226,56.451656 145.476475,56.883547 145.097998,57.25 C145.050689,57.3023504 144.979724,57.3808761 144.885105,57.4855769 C144.790486,57.5902778 144.719522,57.6426282 144.672212,57.6426282 C144.624903,57.7473291 144.412009,57.9305556 144.033533,58.1923077 C143.655056,58.4540598 143.418508,58.6372863 143.323889,58.7419872 Z M151.2719,51.5176282 C151.129971,51.5176282 151.059007,51.6354167 151.059007,51.8709936 C151.059007,52.1065705 151.129971,52.224359 151.2719,52.224359 C151.461139,52.224359 151.555758,52.1065705 151.555758,51.8709936 C151.555758,51.6354167 151.461139,51.5176282 151.2719,51.5176282 Z" id="Shape"></path>
                <path d="M169.898576,48.8188976 C169.993307,48.6089239 170.18277,48.2808399 170.466964,47.8346457 C170.751158,47.3884514 170.893256,47.007874 170.893256,46.6929134 L170.893256,46.4566929 C170.893256,46.4041995 170.84589,46.3385827 170.751158,46.2598425 C170.656427,46.1811024 170.585378,46.1417323 170.538013,46.1417323 L169.259138,46.1417323 C168.02763,46.5616798 166.642183,46.8503937 165.102797,47.007874 C163.563412,47.1653543 162.071392,47.2178478 160.626738,47.1653543 C159.182083,47.1128609 157.938733,46.9685039 156.896688,46.7322835 C155.854642,46.496063 155.238888,46.2204724 155.049425,45.9055118 C154.859962,45.5905512 155.215205,45.2099738 156.115154,44.7637795 C157.015102,44.3175853 158.720268,43.8582677 161.23065,43.3858268 C161.372748,43.3858268 161.692466,43.32021 162.189806,43.1889764 C162.687146,43.0577428 163.231852,42.9396325 163.823923,42.8346457 C164.415995,42.7296588 164.972542,42.6115486 165.493564,42.480315 C166.014587,42.3490814 166.346147,42.2834646 166.488244,42.2834646 C166.677707,42.2309711 167.080316,42.191601 167.69607,42.1653543 C168.311824,42.1391076 168.93942,42.0997375 169.578857,42.0472441 C170.218294,41.9947507 170.834048,41.9685039 171.42612,41.9685039 C172.018191,41.9685039 172.432641,41.9685039 172.66947,41.9685039 L173.024713,41.496063 L178.566501,31.1811024 C178.755964,30.8136483 179.099365,30.5249344 179.596705,30.3149606 C180.094045,30.1049869 180.484812,30 180.769006,30 C181.384761,30 181.811052,30.2755906 182.047881,30.8267717 C182.284709,31.3779528 182.403123,31.9160105 182.403123,32.4409449 C182.403123,32.4934383 182.391282,32.5459318 182.367599,32.5984252 C182.343916,32.6509186 182.332075,32.7034121 182.332075,32.7559055 L182.332075,33.0708661 L179.205938,41.496063 L179.205938,41.9685039 C179.300669,41.6535433 179.478291,41.496063 179.738802,41.496063 C179.999314,41.496063 180.200618,41.496063 180.342715,41.496063 C181.053201,41.496063 181.740003,41.7585302 182.403123,42.2834646 C183.066243,42.808399 183.397803,43.5170604 183.397803,44.4094488 C183.397803,44.8293963 183.279389,45.1706037 183.04256,45.4330709 C182.805732,45.6955381 182.521538,45.9055118 182.189978,46.0629921 C181.858418,46.2204724 181.503175,46.3385827 181.124249,46.4173228 C180.745323,46.496063 180.413764,46.5354331 180.129569,46.5354331 C179.561181,46.5354331 179.028316,46.4566929 178.530976,46.2992126 C178.033637,46.1417323 177.500772,46.0629921 176.932384,46.0629921 C176.411361,46.0629921 175.937704,46.3648294 175.511412,46.9685039 C175.085121,47.5721785 174.694354,48.3595801 174.339111,49.3307087 C173.983868,50.3018373 173.687833,51.3910761 173.451004,52.5984252 C173.214175,53.8057743 173.00103,54.9868766 172.811567,56.1417323 C172.622104,57.2965879 172.491848,58.3727034 172.4208,59.3700787 C172.349751,60.3674541 172.314227,61.1286089 172.314227,61.6535433 C172.314227,61.8635171 172.326068,62.2834646 172.349751,62.9133858 C172.373434,63.5433071 172.385275,63.9632546 172.385275,64.1732283 C172.432641,64.488189 172.551055,64.7637795 172.740518,65 C172.929981,65.2362205 173.119444,65.4855643 173.308907,65.7480315 L174.943024,65.7480315 C176.837652,65.7480315 178.720439,65.2755906 180.591385,64.3307087 C182.462331,63.3858268 184.226703,62.3097113 185.884503,61.1023622 C185.979235,61.0498688 186.204222,60.8005249 186.559465,60.3543307 C186.914707,59.9081365 187.305475,59.4619423 187.731766,59.015748 C188.158057,58.5695538 188.548824,58.1627297 188.904067,57.7952756 C189.25931,57.4278215 189.50798,57.2440945 189.650077,57.2440945 C189.981637,57.2440945 190.289514,57.4278215 190.573709,57.7952756 C190.857903,58.1627297 191,58.5564304 191,58.976378 C191,59.9737533 190.680281,60.9448819 190.040844,61.8897638 C189.401407,62.8346457 188.584349,63.7139108 187.589669,64.5275591 C186.594989,65.3412073 185.458212,66.0892388 184.179338,66.7716535 C182.900463,67.4540682 181.633431,68.0314961 180.378239,68.503937 C179.123048,68.976378 177.938905,69.343832 176.825811,69.6062992 C175.712717,69.8687664 174.800927,70 174.090441,70 C173.427321,70 172.740518,69.9081365 172.030033,69.7244094 C171.319547,69.5406824 170.68011,69.2388451 170.111721,68.8188976 C169.543333,68.3989501 169.069676,67.8740157 168.69075,67.2440945 C168.311824,66.6141732 168.122361,65.8267717 168.122361,64.8818898 L168.122361,56.1417323 L169.898576,48.8188976 Z" id="Path"></path>
                <path d="M186.023661,60.1538462 C187.348692,59.0769231 188.330635,58.025641 188.969489,57 C189.608344,55.974359 190.117061,54.9487179 190.495641,53.9230769 C190.874222,52.8974359 191.181818,51.8076923 191.418431,50.6538462 C191.655044,49.5 192.033624,48.2307692 192.554172,46.8461538 C192.364882,46.4871795 192.258406,46.1666667 192.234745,45.8846154 C192.211083,45.6025641 192.199253,45.2564103 192.199253,44.8461538 C192.199253,44.4358974 192.258406,43.9487179 192.376712,43.3846154 C192.495019,42.8205128 192.672478,42.2948718 192.909091,41.8076923 C193.145704,41.3205128 193.429639,40.8974359 193.760897,40.5384615 C194.092154,40.1794872 194.494396,40 194.967621,40 C194.920299,40.2051282 195.192403,40.4358974 195.783935,40.6923077 C196.375467,40.9487179 197.108966,41.2307692 197.984433,41.5384615 C198.8599,41.8461538 199.794521,42.1794872 200.788294,42.5384615 C201.782067,42.8974359 202.657534,43.2820513 203.414695,43.6923077 C204.266501,44.2051282 204.869863,44.7564103 205.224782,45.3461538 C205.579701,45.9358974 205.757161,46.7692308 205.757161,47.8461538 C205.757161,48.8205128 205.650685,49.9230769 205.437733,51.1538462 C205.224782,52.3846154 205.011831,53.6282051 204.798879,54.8846154 C204.585928,56.1410256 204.372976,57.3974359 204.160025,58.6538462 C203.947073,59.9102564 203.840598,61.0512821 203.840598,62.0769231 L203.840598,64.0769231 C203.793275,64.5384615 203.899751,64.7820513 204.160025,64.8076923 C204.420299,64.8333333 204.668742,64.8461538 204.905355,64.8461538 C205.473225,64.8461538 205.993773,64.7435897 206.466999,64.5384615 C206.940224,64.3333333 207.42528,64.1025641 207.922167,63.8461538 C208.419054,63.5897436 208.90411,63.3461538 209.377335,63.1153846 C209.85056,62.8846154 210.347447,62.7179487 210.867995,62.6153846 L217.11457,58.4615385 C217.303861,58.1025641 217.552304,57.8076923 217.8599,57.5769231 C218.167497,57.3461538 218.463263,57.1282051 218.747198,56.9230769 C219.220423,56.6153846 219.788294,56.1794872 220.450809,55.6153846 C220.782067,55.3076923 221.136986,55 221.515567,54.6923077 L223.645081,54.6923077 C223.787049,54.6923077 223.881694,54.8461538 223.929016,55.1538462 C223.976339,55.4615385 224,55.6923077 224,55.8461538 C224,56.4615385 223.597758,57.2307692 222.793275,58.1538462 C221.988792,59.0769231 220.947696,60.025641 219.669988,61 C218.392279,61.974359 216.972603,62.9358974 215.410959,63.8846154 C213.849315,64.8333333 212.323163,65.6923077 210.832503,66.4615385 C209.341843,67.2307692 207.969489,67.8461538 206.715442,68.3076923 C205.461395,68.7692308 204.503113,69 203.840598,69 C202.988792,69 202.302615,68.7692308 201.782067,68.3076923 C201.261519,67.8461538 200.835616,67.2820513 200.504359,66.6153846 C200.173101,65.9487179 199.948319,65.2179487 199.830012,64.4230769 C199.711706,63.6282051 199.652553,62.8461538 199.652553,62.0769231 C199.652553,61.5128205 199.818182,60.7179487 200.14944,59.6923077 C200.480697,58.6666667 200.859278,57.6153846 201.285181,56.5384615 C201.711083,55.4615385 202.089664,54.4102564 202.420922,53.3846154 C202.752179,52.3589744 202.917808,51.5384615 202.917808,50.9230769 C202.917808,50.8717949 202.57472,50.6666667 201.888543,50.3076923 C201.202366,49.9487179 200.457036,49.5512821 199.652553,49.1153846 C198.84807,48.6794872 198.10274,48.2948718 197.416563,47.9615385 C196.730386,47.6282051 196.387298,47.4358974 196.387298,47.3846154 C195.346202,48.5641026 194.624533,49.8205128 194.222291,51.1538462 C193.82005,52.4871795 193.417808,53.8717949 193.015567,55.3076923 C192.613325,56.7435897 192.021793,58.1794872 191.240971,59.6153846 C190.460149,61.0512821 189.146949,62.4615385 187.30137,63.8461538 C187.254047,63.8461538 187.147572,63.8205128 186.981943,63.7692308 C186.816314,63.7179487 186.650685,63.5769231 186.485056,63.3461538 C186.319427,63.1153846 186.18929,62.7564103 186.094645,62.2692308 C186,61.7820513 185.976339,61.0769231 186.023661,60.1538462 Z" id="Path"></path>
                <path d="M222,62.8579088 C222,62.8060769 222.023287,62.6246649 222.06986,62.3136729 C222.116434,62.002681 222.163007,61.678731 222.209581,61.3418231 C222.256154,61.0049151 222.302728,60.6939231 222.349301,60.4088472 C222.395875,60.1237712 222.419162,59.9294013 222.419162,59.8257373 L222.419162,59.5147453 L222.419162,59.0482574 L223.397206,54.150134 C224.188955,52.2841823 225.015635,50.4959786 225.877246,48.7855228 C226.738856,47.075067 227.728543,45.5719392 228.846307,44.2761394 C229.964072,42.9803396 231.256487,41.9436997 232.723553,41.1662198 C234.190619,40.3887399 235.972056,40 238.067864,40 C238.487026,40 239.010978,40.142538 239.639721,40.4276139 C240.268463,40.7126899 240.897206,41.0625559 241.525948,41.4772118 C242.154691,41.8918677 242.73686,42.3194817 243.272455,42.7600536 C243.808051,43.2006256 244.215569,43.6023235 244.49501,43.9651475 C245.938789,43.7059875 246.986693,43.5634495 247.638723,43.5375335 C248.290752,43.5116175 248.849634,43.4857015 249.315369,43.4597855 C249.781104,43.4338695 250.28177,43.3431635 250.817365,43.1876676 C251.352961,43.0321716 252.179641,42.6952636 253.297405,42.1769437 C254.089155,41.9177837 254.857618,41.7882038 255.602794,41.7882038 C255.928809,41.7882038 256.24318,41.9436997 256.545908,42.2546917 C256.848636,42.5656836 257,42.9285076 257,43.3431635 C257,43.8614835 256.836993,44.3279714 256.510978,44.7426273 C256.184963,45.1572833 255.789088,45.4164433 255.323353,45.5201072 L246.590818,47.6970509 L245.822355,48.0857909 C245.775782,50.8847185 245.2169,53.5540661 244.145709,56.0938338 C243.074518,58.6336014 241.654025,60.8623771 239.884232,62.7801609 C238.114438,64.6979446 236.065203,66.2140304 233.736527,67.3284182 C231.407851,68.4428061 228.986028,69 226.471058,69 C226.284764,69 225.982036,68.987042 225.562874,68.961126 C225.143713,68.93521 224.864271,68.922252 224.724551,68.922252 C223.699933,68.4557641 222.989687,67.6005362 222.593812,66.3565684 C222.197937,65.1126005 222,63.9463807 222,62.8579088 Z M226.471058,64.4128686 C226.517631,64.6720286 226.703925,64.8016086 227.02994,64.8016086 C227.355955,64.8016086 227.588822,64.8016086 227.728543,64.8016086 C229.40519,64.8016086 231.12841,64.3221626 232.898204,63.3632708 C234.667997,62.4043789 236.26314,61.1604111 237.683633,59.6313673 C239.104125,58.1023235 240.268463,56.3659517 241.176647,54.422252 C242.08483,52.4785523 242.538922,50.5218945 242.538922,48.5522788 C241.04857,48.5522788 239.558217,48.4097408 238.067864,48.1246649 C236.577512,47.8395889 235.133733,47.6970509 233.736527,47.6970509 L233.666667,47.6970509 L227.868263,54.538874 C227.542249,54.9016979 227.286094,55.3941019 227.0998,56.0160858 C226.913506,56.6380697 226.773786,57.3118856 226.680639,58.0375335 C226.587492,58.7631814 226.517631,59.4888293 226.471058,60.2144772 C226.424484,60.9401251 226.401198,61.588025 226.401198,62.1581769 C226.401198,62.3136729 226.401198,62.6764969 226.401198,63.2466488 C226.401198,63.8168007 226.424484,64.2055407 226.471058,64.4128686 Z" id="Shape"></path>
                <path d="M251,67.372093 L253.409449,51.8682171 L253.409449,49.6976744 L254.826772,39.3875969 C254.968504,39.1808786 255.228346,39.0645995 255.606299,39.0387597 C255.984252,39.0129199 256.244094,39 256.385827,39 C256.76378,39 257.200787,39.1421189 257.69685,39.4263566 C258.192913,39.7105943 258.440945,40.0852713 258.440945,40.5503876 L258.440945,45.8217054 C258.629921,45.6666667 258.96063,45.3565891 259.433071,44.8914729 C259.905512,44.4263566 260.413386,43.9354005 260.956693,43.4186047 C261.5,42.9018088 262.007874,42.4108527 262.480315,41.9457364 C262.952756,41.4806202 263.259843,41.1447028 263.401575,40.9379845 C263.92126,40.4211886 264.547244,39.9819121 265.279528,39.620155 C266.011811,39.2583979 266.708661,39.0775194 267.370079,39.0775194 C268.740157,39.0775194 269.814961,39.5426357 270.594488,40.4728682 C271.374016,41.4031008 271.76378,42.5917313 271.76378,44.0387597 C271.76378,44.1421189 271.751969,44.2067183 271.728346,44.2325581 C271.704724,44.2583979 271.692913,44.3229974 271.692913,44.4263566 L271.692913,44.7364341 L269,57.9922481 L269,64.2713178 C270.464567,64.2713178 271.988189,63.9483204 273.570866,63.3023256 C275.153543,62.6563307 276.677165,61.8423773 278.141732,60.8604651 C279.606299,59.878553 280.976378,58.754522 282.251969,57.4883721 C283.527559,56.2222222 284.637795,54.994832 285.582677,53.8062016 L285.866142,53.8062016 C286.19685,53.8062016 286.468504,53.9224806 286.681102,54.1550388 C286.893701,54.3875969 287,54.6847545 287,55.0465116 C287,56.1834625 286.65748,57.3074935 285.972441,58.4186047 C285.287402,59.5297158 284.413386,60.5762274 283.350394,61.5581395 C282.287402,62.5400517 281.059055,63.4702842 279.665354,64.3488372 C278.271654,65.2273902 276.901575,65.9767442 275.555118,66.5968992 C274.208661,67.2170543 272.897638,67.7080103 271.622047,68.0697674 C270.346457,68.4315245 269.259843,68.6124031 268.362205,68.6124031 C267.464567,68.6124031 266.755906,68.4315245 266.23622,68.0697674 C265.716535,67.7080103 265.326772,67.2299742 265.066929,66.6356589 C264.807087,66.0413437 264.641732,65.3824289 264.570866,64.6589147 C264.5,63.9354005 264.464567,63.1602067 264.464567,62.3333333 L264.464567,61.3255814 L267.228346,46.2868217 L267.228346,43.7286822 C266.094488,43.7286822 264.972441,44.2713178 263.862205,45.3565891 C262.751969,46.4418605 261.759843,47.7596899 260.885827,49.3100775 C260.011811,50.8604651 259.255906,52.4366925 258.61811,54.0387597 C257.980315,55.6408269 257.519685,56.9586563 257.23622,57.9922481 C257.141732,58.3540052 257,59 256.811024,59.9302326 C256.622047,60.8604651 256.444882,61.8423773 256.279528,62.875969 C256.114173,63.9095607 255.96063,64.8914729 255.818898,65.8217054 C255.677165,66.751938 255.582677,67.4237726 255.535433,67.8372093 C255.582677,68.1472868 255.5,68.379845 255.287402,68.5348837 C255.074803,68.6899225 254.826772,68.8062016 254.543307,68.8837209 C254.259843,68.9612403 253.964567,69 253.65748,69 C253.350394,69 253.102362,69 252.913386,69 C252.488189,69 252.062992,68.9224806 251.637795,68.7674419 C251.212598,68.6124031 251,68.2248062 251,67.6046512 L251,67.372093 Z" id="Path"></path>
                <path d="M284.392226,110.900569 C284.156655,110.11526 283.956419,109.382306 283.791519,108.701706 C283.62662,108.021105 283.520612,107.379771 283.473498,106.777701 C283.426384,106.175631 283.391048,105.573562 283.367491,104.971492 C283.343934,104.369423 283.332155,103.649557 283.332155,102.811895 C283.332155,102.707187 283.332155,102.51086 283.332155,102.222914 C283.332155,101.934967 283.332155,101.620844 283.332155,101.280544 C283.332155,100.940244 283.343934,100.626121 283.367491,100.338174 C283.391048,100.050228 283.402827,99.8539009 283.402827,99.7491932 C283.921084,97.1838533 284.498233,94.6577788 285.134276,92.1709697 C285.770318,89.6841606 286.535925,87.2758824 287.431095,84.9461349 C288.326266,82.6163875 289.409894,80.4175247 290.681979,78.3495466 C291.954064,76.2815686 293.532391,74.3575636 295.416961,72.5775319 C295.464075,72.3157625 295.534747,71.7922238 295.628975,71.0069156 C295.723204,70.2216075 295.840989,69.4101224 295.982332,68.5724604 C296.123675,67.7347984 296.229682,66.9364018 296.300353,66.1772706 C296.371025,65.4181394 296.429918,64.8553353 296.477032,64.4888582 C296.477032,64.3841504 296.465253,64.1354695 296.441696,63.7428154 C296.418139,63.3501614 296.40636,63.1014805 296.40636,62.9967727 L296.194346,62.9967727 C294.545347,63.9391425 292.96702,64.763716 291.459364,65.4704933 C289.951708,66.1772706 288.302709,66.5306593 286.512367,66.5306593 C285.522968,66.5306593 284.68669,66.3474207 284.003534,65.9809436 C283.320377,65.6144665 282.766784,65.1171047 282.342756,64.4888582 C281.918728,63.8606116 281.600707,63.1276574 281.388693,62.2899954 C281.176678,61.4523334 281.047114,60.5361406 281,59.5414169 L282.696113,53.8086676 C283.120141,52.4998207 283.650177,51.0993545 284.286219,49.6072691 C284.922261,48.1151836 285.652532,46.6885405 286.477032,45.3273398 C287.301531,43.966139 288.255595,42.7227345 289.339223,41.5971262 C290.42285,40.4715179 291.647821,39.6731213 293.014134,39.2019364 C294.85159,38.8878131 296.559482,38.940167 298.137809,39.358998 C299.716137,39.777829 301.094229,40.3798986 302.272085,41.1652067 C303.449941,41.9505148 304.404005,42.8012653 305.134276,43.7174581 C305.864547,44.6336509 306.300353,45.4320475 306.441696,46.1126479 C306.347468,46.897956 306.135453,47.7225296 305.805654,48.5863685 C305.475854,49.4502075 305.110718,50.3140464 304.710247,51.1778854 C304.309776,52.0417243 303.909305,52.8270324 303.508834,53.5338097 C303.108363,54.2405871 302.813899,54.8295682 302.625442,55.300753 C302.248528,56.2431228 301.918728,57.2378464 301.636042,58.2849239 C301.353357,59.3320014 301.106007,60.4052559 300.893993,61.5046873 C300.681979,62.6041186 300.517079,63.7166385 300.399293,64.8422468 C300.281508,65.9678551 300.222615,67.0018442 300.222615,67.9442139 L300.222615,69.1221761 C302.625442,67.5515599 305.216726,66.3212438 307.996466,65.4312279 C310.776207,64.541212 313.532391,64.0962041 316.265018,64.0962041 C316.594817,64.0962041 317.030624,64.0962041 317.572438,64.0962041 C318.114252,64.0962041 318.632509,64.1616464 319.127208,64.2925311 C319.621908,64.4234158 320.057715,64.6590082 320.434629,64.9993084 C320.811543,65.3396086 321,65.823882 321,66.4521285 C321,67.4468521 320.5053,67.9442139 319.515901,67.9442139 C319.374558,67.9442139 319.044759,67.9049485 318.526502,67.8264177 C318.008245,67.7478869 317.654888,67.6562676 317.466431,67.5515599 C317.136631,67.6039137 316.57126,67.7086215 315.770318,67.8656831 C314.969376,68.0227447 314.097762,68.2059833 313.155477,68.4153988 C312.213192,68.6248143 311.341578,68.8342298 310.540636,69.0436453 C309.739694,69.2530608 309.174323,69.3839455 308.844523,69.4362994 C308.70318,69.4886532 308.432273,69.6064495 308.031802,69.789688 C307.631331,69.9729266 307.195524,70.1692536 306.724382,70.3786691 C306.253239,70.5880846 305.793875,70.7844117 305.34629,70.9676502 C304.898704,71.1508888 304.60424,71.3210389 304.462898,71.4781005 C304.085984,71.5828083 303.650177,71.7791353 303.155477,72.0670816 C302.660777,72.3550279 302.177856,72.6429742 301.706714,72.9309205 C301.235571,73.2188669 300.823322,73.4806362 300.469965,73.7162287 C300.116608,73.9518211 299.939929,74.0957943 299.939929,74.1481481 L299.233216,75.2475795 L297.537102,95.1158752 C297.39576,96.477076 297.054181,98.126223 296.512367,100.063316 C295.970554,102.00041 295.252061,103.858972 294.35689,105.639004 C293.46172,107.419036 292.366313,108.92421 291.070671,110.154526 C289.775029,111.384842 288.302709,112 286.65371,112 C286.182568,112 285.770318,111.934558 285.416961,111.803673 C285.063604,111.672788 284.722026,111.371753 284.392226,110.900569 Z M286.795053,103.204549 C286.842167,103.675734 286.90106,104.356334 286.971731,105.24635 C287.042403,106.136366 287.195524,106.86932 287.431095,107.445213 C288.326266,107.183443 289.150766,106.463578 289.904594,105.285615 C290.658422,104.107653 291.294464,102.785718 291.812721,101.319809 C292.330978,99.8539009 292.755006,98.4010809 293.084806,96.9613493 C293.414605,95.5216177 293.62662,94.4090979 293.720848,93.6237898 C293.909305,92.4196506 294.062426,91.2809538 294.180212,90.2076994 C294.297998,89.134445 294.404005,88.1135444 294.498233,87.1449977 C294.592462,86.176451 294.663133,85.2209928 294.710247,84.278623 C294.757362,83.3362533 294.780919,82.3153527 294.780919,81.2159213 C294.780919,81.0588597 294.76914,80.705471 294.745583,80.1557553 C294.722026,79.6060396 294.710247,79.252651 294.710247,79.0955894 C293.438163,80.927975 292.378092,82.7865376 291.530035,84.6712771 C290.681979,86.5560166 289.963486,88.4800215 289.374558,90.4432918 C288.78563,92.4065622 288.290931,94.4483633 287.890459,96.5686953 C287.489988,98.6890272 287.124853,100.900978 286.795053,103.204549 Z M285.09894,61.0335024 C285.240283,61.4523334 285.440518,61.8188105 285.699647,62.1329338 C285.958775,62.447057 286.32391,62.6041186 286.795053,62.6041186 C288.726737,62.6041186 290.458186,62.1460222 291.989399,61.2298294 C293.520612,60.3136366 294.875147,59.1225859 296.053004,57.6566774 C297.23086,56.1907689 298.255595,54.5939757 299.127208,52.8662978 C299.998822,51.1386199 300.740872,49.4109421 301.353357,47.6832642 L301.353357,47.3691409 C300.599529,45.641463 299.739694,44.5289432 298.773852,44.0315814 C297.808009,43.5342196 296.795053,43.4556887 295.734982,43.7959889 C294.674912,44.1362891 293.603062,44.8168895 292.519435,45.8377901 C291.435807,46.8586906 290.411072,48.0104759 289.44523,49.2931458 C288.479388,50.5758158 287.619552,51.9239281 286.865724,53.3374827 C286.111896,54.7510373 285.522968,56.0467958 285.09894,57.224758 C284.674912,58.4027201 284.43934,59.3581784 284.392226,60.0911326 C284.345112,60.8240869 284.580683,61.1382101 285.09894,61.0335024 Z" id="Shape"></path>
            </g>
        </g>
    </g>
</svg>