<svg xmlns:v="https://vecta.io/nano" fill-rule="evenodd" viewBox="0 0 160 33" height="33" width="160" style="height:auto; width:100%;" xmlns="http://www.w3.org/2000/svg"><path fill="#ffffff" d="M143.793 13.271c-2.142-1.929-2.106-5.461.081-7.89s5.696-2.833 7.838-.904 2.106 5.461-.081 7.89-5.696 2.833-7.838.904zm.948.145c1.832 1.65 4.924 1.145 6.867-1.013s2.122-5.286.29-6.936-4.924-1.145-6.867 1.013-2.122 5.286-.29 6.936z"></path><path fill="#fde74c" d="M148.879.228c-1.446 6.747-1.02 8.733-11.121 9.485 9.929.921 10.072 3.147 11.121 9.633 1.381-6.523 1.112-8.626 11.121-9.633-10.087-.74-9.747-2.746-11.121-9.485z"></path><path fill="#ffffff" d="M12.02 28.388v-2.145H3.16v-.189l8.649-12.002v-1.7H.266v2.145h8.427v.189L0 26.688v1.7h12.02zm7.042.233c2.761 0 4.713-1.334 5.234-3.467H22c-.444.978-1.43 1.511-2.872 1.511-1.907 0-3.138-1.378-3.216-3.567v-.111h8.527v-.822c0-3.778-2.029-6.079-5.389-6.079-3.404 0-5.566 2.456-5.566 6.29 0 3.856 2.118 6.246 5.577 6.246zm2.95-7.357h-6.099c.133-1.945 1.364-3.234 3.127-3.234s2.916 1.278 2.972 3.234zm6.765 7.123v-7.079c0-1.945 1.12-3.145 2.883-3.145s2.606.978 2.606 2.978v7.246h2.384v-7.812c0-2.878-1.486-4.49-4.18-4.49-1.818 0-3.016.811-3.604 2.145h-.177v-1.911h-2.295v12.069h2.384zM40.32 14.163a1.51 1.51 0 0 0 1.508-1.5 1.51 1.51 0 0 0-1.508-1.511 1.51 1.51 0 0 0-1.508 1.511 1.51 1.51 0 0 0 1.508 1.5zm1.186 14.225V16.319h-2.373v12.069h2.373zm7.142.078c.466 0 .909-.056 1.297-.122v-1.9l-.909.056c-1.186 0-1.708-.567-1.708-1.867v-6.368h2.617v-1.911h-2.617v-3.078h-2.384v3.078h-1.918v1.911h1.918v6.946c0 2.323 1.053 3.256 3.704 3.256zm5.689-.078V21.32c0-1.889 1.087-3.145 3.038-3.145 1.685 0 2.584.989 2.584 2.978v7.235h2.384v-7.801c0-2.856-1.586-4.49-4.158-4.49-1.818 0-3.094.8-3.681 2.145h-.189v-6.657h-2.362v16.803h2.384zm26.181 0v-2.145h-7.673v-4.99h7.263v-2.067h-7.263v-4.69h7.673v-2.145H70.362v16.036h10.157zm4.78 0v-7.079c0-1.945 1.12-3.145 2.883-3.145s2.606.978 2.606 2.978v7.246h2.384v-7.812c0-2.878-1.486-4.49-4.18-4.49-1.818 0-3.016.811-3.604 2.145h-.177v-1.911h-2.295v12.069h2.384zm15.292.233c2.761 0 4.713-1.334 5.234-3.467h-2.295c-.444.978-1.43 1.511-2.872 1.511-1.907 0-3.138-1.378-3.216-3.567v-.111h8.527v-.822c0-3.778-2.029-6.079-5.389-6.079-3.404 0-5.566 2.456-5.566 6.29 0 3.856 2.118 6.246 5.577 6.246zm2.95-7.357h-6.099c.133-1.945 1.364-3.234 3.127-3.234s2.916 1.278 2.972 3.234zm6.765 7.123v-7.212c0-1.7 1.275-2.867 3.083-2.867.421 0 1.131.078 1.331.133v-2.245c-.255-.056-.71-.089-1.064-.089-1.575 0-2.916.856-3.26 2.045h-.177v-1.834h-2.295v12.069h2.384zM120.884 33c3.415 0 5.577-1.745 5.577-4.49V16.319h-2.284v1.923h-.189c-.676-1.311-2.129-2.134-3.792-2.134-3.083 0-5.012 2.434-5.012 6.09 0 3.623 1.907 6.012 4.99 6.012 1.663 0 2.994-.722 3.726-2.034h.177v2.323c0 1.634-1.175 2.612-3.16 2.612-1.608 0-2.617-.578-2.816-1.489h-2.439c.255 2.034 2.207 3.378 5.223 3.378zm-.033-6.768c-2.051 0-3.205-1.567-3.205-4.034s1.153-4.045 3.205-4.045c2.029 0 3.271 1.578 3.271 4.045s-1.231 4.034-3.271 4.034zm9.36 6.534c2.462 0 3.604-.922 4.635-3.823l4.502-12.624h-2.528l-3.016 9.668h-.189l-3.027-9.668h-2.595l4.369 12.102-.177.622c-.41 1.278-1.053 1.756-2.184 1.756-.222 0-.588-.011-.776-.044v1.956c.222.033.787.056.987.056z"></path></svg>